<svg xmlns="http://www.w3.org/2000/svg" version="1.1" xmlns:xlink="http://www.w3.org/1999/xlink" xmlns:svgjs="http://svgjs.dev/svgjs" width="1000" height="623" viewBox="0 0 1000 623"><g transform="matrix(1,0,0,1,-0.6060606060606233,0.2522267206477409)"><svg viewBox="0 0 396 247" data-background-color="#1d366f" preserveAspectRatio="xMidYMid meet" height="623" width="1000" xmlns="http://www.w3.org/2000/svg" xmlns:xlink="http://www.w3.org/1999/xlink"><g id="tight-bounds" transform="matrix(1,0,0,1,0.2400000000000091,-0.09999999999999432)"><svg viewBox="0 0 395.52 247.2" height="247.2" width="395.52"><g><svg></svg></g><g><svg viewBox="0 0 395.52 247.2" height="247.2" width="395.52"><g transform="matrix(1,0,0,1,75.54432,79.79259737644732)"><svg viewBox="0 0 244.43135999999998 87.61480524710535" height="87.61480524710535" width="244.43135999999998"><g><svg viewBox="0 0 389.0103172034726 139.43817675807608" height="87.61480524710535" width="244.43135999999998"><g transform="matrix(1,0,0,1,144.57895720347267,19.271122837042356)"><svg viewBox="0 0 244.43135999999996 100.89593108399137" height="100.89593108399137" width="244.43135999999996"><g id="textblocktransform"><svg viewBox="0 0 244.43135999999996 100.89593108399137" height="100.89593108399137" width="244.43135999999996" id="textblock"><g><svg viewBox="0 0 244.43135999999996 100.89593108399137" height="100.89593108399137" width="244.43135999999996"><g transform="matrix(1,0,0,1,0,0)"><svg width="244.43135999999996" viewBox="-1.05 -26.7 69.64 28.75" height="100.89593108399137" data-palette-color="#ffffff"><g class="wordmark-text-0" data-fill-palette-color="primary" id="text-0"><path d="M3.05-5.45L3.05-5.45Q0.65-3.25 0-3.25L0-3.25Q-0.2-3.25-0.2-3.45-0.2-3.65-0.05-3.8L-0.05-3.8Q1.15-4.45 2.75-5.9L2.75-5.9Q2.5-6.5 2.5-7.2L2.5-7.2Q2.5-8.9 4.25-10.45 6-12 7.2-12L7.2-12Q7.85-12 7.85-11.38 7.85-10.75 5.85-8.35L5.85-8.35Q5.65-8.1 5.4-7.85 5.15-7.6 4.88-7.28 4.6-6.95 4.45-6.8L4.45-6.8Q4.7-6.55 5.35-5.93 6-5.3 6.4-4.9L6.4-4.9Q7.5-3.8 7.5-2.15 7.5-0.5 5.45 0.73 3.4 1.95 1.18 1.95-1.05 1.95-1.05 0.63-1.05-0.7 1-1.8 3.05-2.9 5.3-3.3L5.3-3.3Q5-3.7 4.17-4.35 3.35-5 3.05-5.45ZM5.65-2.7Q3.95-2.5 2.45-1.78 0.95-1.05 0.95-0.08 0.95 0.9 2.33 0.9 3.7 0.9 4.78 0.25 5.85-0.4 5.85-1.2 5.85-2 5.65-2.7L5.65-2.7ZM4.1-7.2L4.1-7.2 5.4-8.6Q6.7-10.15 6.7-10.48 6.7-10.8 6.4-10.8L6.4-10.8Q5.55-10.8 4.65-9.98 3.75-9.15 3.75-8.38 3.75-7.6 4.1-7.2ZM19.3-5.95L19.3-5.95Q19-5.95 19-6.3L19-6.3 19.15-6.65Q20.05-7.5 20.05-8.1L20.05-8.1Q20.05-8.85 19.25-8.85L19.25-8.85Q17.5-8.85 14.52-6.43 11.55-4 11.55-2.1L11.55-2.1Q11.55-1.3 12.6-1.3 13.65-1.3 15.02-2.18 16.4-3.05 17.37-3.93 18.35-4.8 18.45-4.8L18.45-4.8Q18.95-4.75 18.95-4.3L18.95-4.3Q18.95-4.1 18.17-3 17.4-1.9 17.4-1.25L17.4-1.25Q17.4-0.75 18.22-0.75 19.05-0.75 21.15-1.73 23.25-2.7 24.85-3.7L24.85-3.7 26.45-4.7Q26.5-4.6 26.5-4.3 26.5-4 26.05-3.8L26.05-3.8Q19.3 0.8 16.65 0.8L16.65 0.8Q15.35 0.8 15.35-0.5L15.35-0.5Q15.35-1.05 15.55-1.65L15.55-1.65Q15.2-1.25 13.47-0.43 11.75 0.4 10.4 0.4 9.05 0.4 9.05-0.85L9.05-0.85Q9.05-3.8 13.15-6.88 17.25-9.95 20.05-9.95L20.05-9.95Q21.7-9.95 21.7-8.55L21.7-8.55Q21.7-7.75 20.7-6.85 19.7-5.95 19.3-5.95ZM25.8-0.65L25.8-0.65Q26.25-0.65 30.82-4.63 35.4-8.6 36.2-8.6 37-8.6 37-7.9L37-7.9Q37-7.35 36-6.2 35-5.05 34.02-3.7 33.05-2.35 33.05-1.3L33.05-1.3Q33.05-0.75 33.87-0.75 34.7-0.75 36.8-1.73 38.9-2.7 40.5-3.7L40.5-3.7 42.09-4.7Q42.15-4.6 42.15-4.3 42.15-4 41.7-3.8L41.7-3.8Q34.95 0.8 32.3 0.8L32.3 0.8Q31 0.8 31-0.6L31-0.6Q31-1.55 31.7-2.9 32.4-4.25 33.09-5.15L33.09-5.15 33.75-6.05Q31.5-4.35 29.1-2.23 26.7-0.1 25.45 0.98 24.2 2.05 23.7 2.05 23.2 2.05 23.2 1.33 23.2 0.6 25.55-3.7 27.9-8 30.97-12.98 34.05-17.95 37.42-22 40.8-26.05 42.55-26.05L42.55-26.05Q43.3-26.05 43.59-25.35L43.59-25.35Q43.75-25.1 43.75-24.75L43.75-24.75Q43.75-21.3 33.4-11.5L33.4-11.5Q31.45-9.6 29.6-8L29.6-8Q25.8-1.6 25.8-0.65ZM42.09-24.2L42.09-24.2Q42.09-24.7 41.84-24.7L41.84-24.7Q40.84-24.7 37.65-20.3 34.45-15.9 30.85-10.05L30.85-10.05Q42.09-20.3 42.09-24.2ZM49.64-15.25L49.64-15.25Q50.39-15.25 50.39-14.5 50.39-13.75 49.69-12.98 48.99-12.2 48.14-12.2L48.14-12.2Q47.44-12.2 47.44-13.18 47.44-14.15 48.24-14.7 49.04-15.25 49.64-15.25ZM44.94-8.65L44.94-8.65Q45.19-9.05 45.64-9.05 46.09-9.05 46.54-8.6L46.54-8.6Q46.54-8.4 45.89-7.7 45.24-7 43.69-4.58 42.14-2.15 42.14-1.35L42.14-1.35Q42.14-0.85 42.89-0.75L42.89-0.75Q43.89-0.75 45.99-1.73 48.09-2.7 49.69-3.7L49.69-3.7 51.29-4.7Q51.34-4.6 51.34-4.3 51.34-4 50.89-3.8L50.89-3.8Q44.14 0.8 41.49 0.8L41.49 0.8Q40.19 0.8 40.19-0.5 40.19-1.8 41.62-4.13 43.04-6.45 44.94-8.65ZM51.19 0.8L51.19 0.8Q48.94 0.8 48.94-1.65L48.94-1.65Q48.94-4.9 52.47-10.98 55.99-17.05 60.52-21.88 65.04-26.7 67.64-26.7L67.64-26.7Q68.59-26.7 68.59-25.35L68.59-25.35Q68.59-23.25 65.06-18.5 61.54-13.75 57.49-9.6 53.44-5.45 51.24-3.9L51.24-3.9Q51.14-3.1 51.14-2.83 51.14-2.55 51.19-2.2 51.24-1.85 51.59-1.3 51.94-0.75 52.77-0.75 53.59-0.75 55.69-1.73 57.79-2.7 59.39-3.7L59.39-3.7 60.99-4.7Q61.04-4.6 61.04-4.3 61.04-4 60.59-3.8L60.59-3.8Q53.84 0.8 51.19 0.8ZM66.79-24.15L66.79-24.15Q66.74-25.25 66.14-25.25L66.14-25.25Q64.59-25.25 61.44-21.75 58.29-18.25 55.34-13.38 52.39-8.5 51.49-5L51.49-5Q53.59-6.7 56.89-10 60.19-13.3 63.39-17.55 66.59-21.8 66.79-24.15Z" fill="#ffffff" data-fill-palette-color="primary"></path></g></svg></g></svg></g></svg></g></svg></g><g><svg viewBox="0 0 120.75984937688831 139.43817675807608" height="139.43817675807608" width="120.75984937688831"><g><svg xmlns="http://www.w3.org/2000/svg" xmlns:xlink="http://www.w3.org/1999/xlink" version="1.1" x="0" y="0" viewBox="9.547 3.29 80.906 93.41999999999999" enable-background="new 0 0 100 100" xml:space="preserve" height="139.43817675807608" width="120.75984937688831" class="icon-icon-0" data-fill-palette-color="accent" id="icon-0"><g fill="#08c076" data-fill-palette-color="accent"><path d="M31.112 39.094v21.812L49.999 71.81l18.89-10.903V39.094l-18.89-10.905L31.112 39.094zM60.925 56.308l-10.926 6.307-10.924-6.307V43.692l10.924-6.308 10.926 6.308V56.308z" fill="#08c076" data-fill-palette-color="accent"></path><path d="M49.999 3.29L9.547 26.646v46.709L49.999 96.71l40.454-23.355V26.646L49.999 3.29zM82.19 68.584L49.999 87.169 17.811 68.584v-37.17l32.188-18.585L82.19 31.414V68.584z" fill="#08c076" data-fill-palette-color="accent"></path><path d="M20.368 32.89v34.218l29.631 17.108 29.634-17.108V32.89L49.999 15.782 20.368 32.89zM71.446 62.383l-21.447 12.38-21.444-12.38V37.618l21.444-12.382 21.447 12.382V62.383z" fill="#08c076" data-fill-palette-color="accent"></path></g></svg></g></svg></g></svg></g></svg></g><g><path d="M0 123.6c0-68.262 55.338-123.6 123.6-123.6 49.965 0 93.005 29.647 112.489 72.309l-3.152 0c-19.284-41.038-60.993-69.451-109.337-69.45-66.684 0-120.741 54.058-120.741 120.741 0 66.684 54.058 120.741 120.741 120.741 48.345 0 90.053-28.413 109.337-69.45l3.152 0c-19.484 42.662-62.524 72.309-112.489 72.309-68.262 0-123.6-55.338-123.6-123.6z" fill="#ffffff" stroke="transparent" data-fill-palette-color="tertiary"></path></g></svg></g><defs></defs></svg><rect width="395.52" height="247.2" fill="none" stroke="none" visibility="hidden"></rect></g></svg></g></svg>